<svg width="32" height="27" viewBox="0 0 32 27" fill="none" xmlns="http://www.w3.org/2000/svg">
<g clip-path="url(#clip0_1926_11750)">
<path d="M30.4612 0H1.38432C0.282646 0 -0.773901 0.437636 -1.5529 1.21663C-2.3319 1.99563 -2.76953 3.05218 -2.76953 4.15385L-2.76953 22.8462C-2.76953 23.9478 -2.3319 25.0044 -1.5529 25.7834C-0.773901 26.5624 0.282646 27 1.38432 27H30.4612C31.5629 27 32.6195 26.5624 33.3985 25.7834C34.1774 25.0044 34.6151 23.9478 34.6151 22.8462V4.15385C34.6151 3.05218 34.1774 1.99563 33.3985 1.21663C32.6195 0.437636 31.5629 0 30.4612 0Z" fill="#006C35"/>
<path d="M6.48972 9.3981C7.14603 9.46041 6.78361 8.28799 7.02142 8.0751C7.06607 7.97022 7.14915 7.96918 7.15538 8.1021V9.09695C7.14915 9.42095 7.36203 9.51545 7.52715 9.58295C7.69953 9.56945 7.81376 9.57568 7.88126 9.74287L7.96226 11.4646C7.96226 11.4646 8.36103 11.5789 8.37972 10.4958C8.39945 9.86022 8.25303 9.32853 8.33922 9.20495C8.34234 9.08345 8.49707 9.07618 8.60507 9.13537C8.77642 9.25583 8.85326 9.40537 9.11911 9.34618C9.52515 9.23506 9.76815 9.03776 9.77438 8.72622C9.75049 8.43026 9.71726 8.1343 9.58953 7.83833C9.60719 7.78433 9.51165 7.64518 9.5293 7.59118C9.60199 7.70541 9.71311 7.69607 9.73803 7.59118C9.66949 7.36376 9.56253 7.14568 9.38807 7.05118C9.24476 6.92449 9.03499 6.95045 8.95815 7.21422C8.92284 7.51745 9.06822 7.87883 9.28838 8.17272C9.33511 8.28799 9.40157 8.47906 9.37249 8.65145C9.25515 8.71791 9.13676 8.69091 9.03915 8.58706C9.03915 8.58706 8.71618 8.3451 8.71618 8.2911C8.80238 7.7428 8.73592 7.68049 8.68815 7.52887C8.65492 7.3191 8.55522 7.2516 8.47422 7.1083C8.39322 7.02314 8.28419 7.02314 8.23226 7.1083C8.08895 7.35545 8.15542 7.88714 8.25926 8.12495C8.33299 8.34303 8.44722 8.48114 8.39322 8.48114C8.34857 8.60472 8.25719 8.57564 8.19072 8.43337C8.09519 8.13845 8.07649 7.69918 8.07649 7.50083C8.04742 7.25576 8.01626 6.73133 7.8553 6.59841C7.75665 6.46445 7.61022 6.52883 7.55934 6.65241C7.54895 6.89541 7.54688 7.13945 7.57492 7.3648C7.68499 7.75837 7.7203 8.10522 7.7743 8.50918C7.78884 9.05022 7.46172 8.74387 7.47626 8.47595C7.55207 8.12806 7.53234 7.57976 7.46484 7.4406C7.41188 7.30249 7.34853 7.26718 7.21976 7.29003C7.11799 7.28172 6.85422 7.57041 6.77945 8.0481C6.77945 8.0481 6.71611 8.29422 6.68911 8.51333C6.65276 8.76049 6.49076 8.93495 6.37653 8.47906C6.27788 8.1478 6.21765 7.33053 6.05253 7.5216C6.00476 8.16026 5.94765 9.28387 6.48972 9.3981Z" fill="white"/>
<path d="M7.47903 9.86438C6.93903 9.87476 6.14876 10.5736 6.12695 10.961C6.69603 10.6868 7.25576 10.4231 7.83522 10.1406C7.74176 10.0004 7.83003 9.87476 7.47903 9.86438Z" fill="white"/>
<path d="M10.4588 11.959C10.7091 11.1251 10.4183 10.5103 10.5544 10.5134C10.842 10.8239 11.245 10.555 11.3332 10.447C11.3716 10.393 11.4661 10.3577 11.5326 10.4283C11.758 10.5903 12.1546 10.5134 12.2367 10.2289C12.2886 9.94312 12.3205 9.65407 12.3322 9.36386C12.1484 9.42098 12.0113 9.4594 11.9989 9.53521L11.9605 9.78236C11.9449 9.86232 11.786 9.86544 11.7798 9.76367C11.7102 9.44694 11.4215 9.4054 11.247 9.89659C11.1297 9.99213 10.9178 10.0108 10.895 9.86855C10.923 9.53936 10.7901 9.49471 10.5243 9.64944C10.4391 8.99625 10.3529 8.37213 10.2678 7.71894C10.3789 7.71582 10.4806 7.79786 10.5814 7.67117C10.4703 7.32536 10.2356 6.61921 10.1058 6.56832C10.0424 6.49148 9.98842 6.53925 9.90638 6.55898C9.76722 6.60363 9.63742 6.72409 9.67792 6.95775C9.84303 7.95986 9.95103 8.72313 10.1151 9.72525C10.14 9.84259 10.0424 9.99732 9.91572 9.98175C9.70076 9.83636 9.64676 9.54144 9.27915 9.5539C9.01226 9.55701 8.70799 9.84571 8.67061 10.1251C8.62596 10.3462 8.61038 10.5872 8.67061 10.7814C8.85753 11.0057 9.08288 10.9839 9.27915 10.933C9.44011 10.8665 9.57407 10.7045 9.63015 10.7429C9.66857 10.7897 9.63949 11.3224 8.86999 11.7316C8.40372 11.9403 8.03299 11.9881 7.83361 11.608C7.71003 11.3702 7.84296 10.4667 7.53869 10.6765C6.63834 12.9974 9.64676 13.3194 9.98322 10.772C10.0154 10.6671 10.1421 10.5622 10.1639 10.7336C10.0943 13.0411 7.83672 13.1999 7.45353 12.4741C7.35799 12.3027 7.32996 11.9226 7.32061 11.6942C7.26349 11.2404 7.02569 11.4148 6.9883 11.8645C6.94988 12.1147 6.96026 12.1854 6.96026 12.4252C7.07969 14.2477 9.98738 13.4647 10.4588 11.959ZM9.3373 10.3826C9.31861 10.4179 9.23657 10.4034 9.17634 10.4034C9.1078 10.4002 9.07561 10.3888 9.03407 10.3338C9.01538 10.2715 9.07353 10.2123 9.09949 10.1656C9.13169 10.1105 9.30511 10.0534 9.36638 10.2071C9.37772 10.2363 9.38101 10.2679 9.37589 10.2988C9.37077 10.3297 9.35744 10.3586 9.3373 10.3826Z" fill="white"/>
<path d="M11.3557 8.31706C11.5364 8.2506 12.3932 7.27133 12.3932 7.27133C12.3485 7.23291 12.3091 7.20487 12.2644 7.16645C12.2166 7.12491 12.2218 7.08337 12.2644 7.04287C12.4762 6.9193 12.4087 6.64826 12.2976 6.52468C12.2258 6.48942 12.1467 6.47144 12.0666 6.47216C11.9866 6.47288 11.9078 6.49229 11.8366 6.52883C11.6881 6.6711 11.6528 6.89956 11.7701 7.04287C11.8843 7.09687 11.9986 7.21214 11.9227 7.27549C11.5728 7.64933 10.6133 8.29422 10.7244 8.31706C10.7483 8.34822 11.3371 8.34718 11.3557 8.31706ZM11.9902 6.7791C12.0453 6.7656 12.1159 6.81441 12.1491 6.8871C12.1824 6.9598 12.1647 7.02937 12.1107 7.04287H12.1086C12.0546 7.05637 11.984 7.00757 11.9508 6.93487C11.9186 6.86114 11.9362 6.7926 11.9902 6.7791ZM6.43344 12.7295C6.29221 13.0171 6.23302 12.8198 6.22056 12.6589C6.20433 12.3885 6.21791 12.1173 6.26106 11.8499C6.29637 11.6214 6.26106 11.691 6.18837 11.7834C5.86748 12.2944 5.83944 13.0587 6.01702 13.2861C6.11048 13.3941 6.26521 13.4419 6.38048 13.4066C6.58194 13.3193 6.67021 12.9102 6.62244 12.7617C6.5539 12.6568 6.50094 12.6402 6.43344 12.7295ZM17.006 7.32118C17.3757 7.81756 17.7267 8.3233 18.0704 8.83837C18.1379 9.28491 18.1867 9.72106 18.2158 10.1541C18.2729 10.989 18.2896 11.8925 18.2376 12.7721C18.3934 12.7783 18.6457 12.5187 18.733 12.1396C18.7901 11.6152 18.7122 10.6816 18.707 10.3722C18.7001 10.1782 18.6908 9.98436 18.679 9.79064C19.0881 10.4594 19.4869 11.1593 19.8763 11.9371C20.0186 11.8707 19.9874 11.0752 19.9044 10.9631C19.5928 10.2953 19.1639 9.63487 19.0269 9.38149C18.976 9.28803 18.8026 9.02218 18.5959 8.71791C18.5782 8.47507 18.5491 8.23318 18.5087 7.99306C18.4443 7.5486 18.6925 8.04187 18.6582 7.7833C18.5782 7.33883 18.3311 7.03872 18.0424 6.63164C17.9489 6.49976 17.9521 6.47276 17.8077 6.66383C17.7567 6.77831 17.7332 6.90315 17.7392 7.02833C17.6941 6.96206 17.6459 6.89796 17.5948 6.83622C17.4381 6.70099 17.2806 6.56668 17.1223 6.4333C17.0174 6.35853 16.762 6.22353 16.7163 6.44783C16.695 6.60506 16.7028 6.76486 16.7391 6.9193C16.7661 7.03041 16.9271 7.21526 17.006 7.32118ZM17.7745 7.29626C17.7942 7.38245 17.815 7.46864 17.8285 7.55691L17.8441 7.64103C17.8005 7.58015 17.7551 7.52058 17.708 7.46241C17.5377 7.26095 17.6789 7.30456 17.7745 7.29626Z" fill="white"/>
<path d="M19.9935 12.1428C19.6321 12.5198 19.1108 12.984 18.5438 13.1989C18.4825 13.2675 18.6954 13.5613 18.9696 13.5613C19.4296 13.5073 19.8346 13.2488 20.2095 12.5686C20.3102 12.4107 20.4868 12.0712 20.4909 11.8074C20.5252 10.2642 20.4141 9.06273 20.1825 7.94742C20.167 7.85793 20.1712 7.76613 20.1949 7.67846C20.224 7.64315 20.3258 7.67846 20.3798 7.59123C20.4577 7.51023 20.1711 6.84561 20.007 6.59015C19.9488 6.47592 19.9291 6.39907 19.8325 6.60365C19.7308 6.7698 19.6633 7.05954 19.6716 7.32954C19.8907 8.8488 19.9582 10.1791 20.1015 11.6983C20.1129 11.8448 20.0911 12.0587 19.9935 12.1428ZM26.0477 8.29011C26.0321 8.18211 25.9844 7.9308 26.0031 7.89861C26.0321 7.82177 26.1827 7.90692 26.2367 7.81865C26.3156 7.73869 25.8483 7.13846 25.6853 6.883C25.6261 6.76877 25.6064 6.69192 25.5098 6.8965C25.408 7.06265 25.3727 7.36069 25.4132 7.62238C25.6573 9.2725 25.839 10.5124 25.8764 11.9756C25.8546 12.1148 25.8504 12.1895 25.785 12.364C25.6406 12.5488 25.4818 12.7794 25.3312 12.8915C25.1816 13.0026 24.8628 13.1096 24.7579 13.1916C24.4288 13.3838 24.4277 13.6029 24.6956 13.6102C25.1546 13.5562 25.6988 13.5188 26.0737 12.9518C26.1744 12.7939 26.2938 12.365 26.299 12.1013C26.3333 10.5581 26.2793 9.40542 26.0477 8.29011ZM22.5678 9.57469C22.572 9.36284 22.5917 9.08246 22.6031 8.90696C22.6083 8.84154 22.6239 8.7678 22.6862 8.75119C22.7496 8.73457 22.8617 8.81557 22.8628 8.74704C22.8503 8.61307 22.8233 8.41369 22.7475 8.31919C22.6436 8.1655 22.3684 8.20288 22.3196 8.4438C22.3207 8.53311 22.3612 8.58088 22.3539 8.66188C22.3414 8.70757 22.2937 8.73873 22.1805 8.68473C22.1992 8.66811 22.1068 8.54038 22.1068 8.54038C22.0185 8.48638 21.9001 8.5435 21.8243 8.5923C21.7969 8.64466 21.7805 8.7021 21.7762 8.76106C21.7719 8.82001 21.7798 8.87922 21.7994 8.935C21.924 9.17073 22.3591 9.57054 22.5678 9.57469Z" fill="white"/>
<path d="M22.4228 7.76876C22.7271 8.14157 23.0376 8.51957 23.3501 8.9038C23.4176 9.76157 23.4353 10.4636 23.5017 11.3213C23.4924 11.6848 23.3802 12.0015 23.2733 12.0472C23.2733 12.0472 23.1123 12.1407 23.0043 12.0379C22.9254 12.0057 22.6107 11.5135 22.6107 11.5135C22.4498 11.366 22.3439 11.4075 22.2296 11.5135C21.9139 11.8177 21.7717 12.3889 21.5577 12.7814C21.5017 12.8697 21.3459 12.9445 21.1725 12.7752C20.7332 12.1739 20.9908 11.3193 20.9368 11.5394C20.5452 11.9808 20.7176 12.7108 20.8059 12.8686C20.9347 13.1262 21.0396 13.2923 21.2909 13.4201C21.5193 13.5883 21.6979 13.4824 21.7956 13.365C22.0261 13.1251 22.0292 12.5176 22.1372 12.3951C22.212 12.1739 22.4041 12.2113 22.4965 12.31C22.5812 12.4294 22.6934 12.5267 22.8236 12.5935C23.0386 12.7835 23.2951 12.8178 23.5474 12.6443C23.7198 12.5478 23.833 12.4221 23.9338 12.1739C24.0459 11.8748 23.9846 10.4999 23.9618 9.67538C24.1228 9.88307 24.2796 10.1001 24.4384 10.3171C24.508 11.0056 24.5475 11.691 24.5246 12.391C24.508 12.5311 25.0127 11.9756 25.0086 11.7118C25.0065 11.4989 25.0086 11.3058 25.0086 11.124C25.2516 11.4896 25.4883 11.8665 25.7106 12.2653C25.8497 12.1926 25.804 11.4086 25.7157 11.3006C25.4592 10.8706 25.1176 10.4231 24.8819 10.1032C24.8663 10.0627 24.858 10.017 24.8393 9.97861C24.7448 9.75949 24.804 9.58295 24.7593 9.35034C24.7157 9.11668 24.7271 8.76776 24.6596 8.49049C24.6409 8.38249 24.5849 8.03565 24.6015 8.00345C24.6285 7.92557 24.7323 8.00553 24.7832 7.91622C24.859 7.83315 24.5205 6.95565 24.3481 6.70434C24.2858 6.59218 24.1736 6.63061 24.0345 6.81338C23.9067 6.93384 23.9545 7.20799 24.0033 7.46865C24.1248 8.10003 24.2266 8.70545 24.3138 9.30465C24.1271 9.05638 23.9384 8.80956 23.7479 8.56422L23.7396 8.51853C23.7396 8.50711 23.7115 7.97438 23.6866 7.84768C23.6824 7.7968 23.67 7.78122 23.724 7.78745C23.7811 7.83522 23.7884 7.83834 23.8247 7.85495C23.8829 7.86534 23.9338 7.76668 23.8995 7.67634L23.3626 6.68772C23.32 6.64515 23.2639 6.59945 23.1964 6.69915C23.1545 6.73575 23.121 6.78093 23.098 6.83164C23.0751 6.88234 23.0633 6.93738 23.0635 6.99303C23.0801 7.22668 23.1206 7.46553 23.1362 7.70022L23.1591 7.82691C23.1352 7.79888 23.1061 7.76357 23.0936 7.75111C22.6377 7.27134 23.3034 7.67322 23.0064 7.30249C22.7551 7.02626 22.6824 6.94007 22.4664 6.77391C22.3584 6.70434 22.293 6.57141 22.2577 6.7978C22.2399 6.99631 22.2347 7.19575 22.2421 7.39492C22.2421 7.49045 22.3387 7.66492 22.4228 7.76876ZM13.1794 8.88926C13.4411 8.99726 13.6083 8.4988 13.7163 7.95257C13.789 7.79888 13.8451 7.78226 13.8825 7.86118C13.8731 8.58811 13.9344 8.74907 14.1213 8.97026C14.5377 9.29218 14.8825 9.01076 14.9106 8.98376L15.2346 8.65976C15.3062 8.58395 15.4028 8.57876 15.5046 8.64626C15.6042 8.73557 15.5907 8.89134 15.8026 8.99934C15.9812 9.07099 16.3634 9.01595 16.4516 8.86226C16.5711 8.65872 16.6001 8.58811 16.6541 8.51126C16.7393 8.39807 16.8847 8.44895 16.8847 8.48426C16.8712 8.54761 16.786 8.61095 16.8442 8.72415C16.9459 8.79995 16.9688 8.75115 17.029 8.73453C17.2409 8.63276 17.3987 8.17376 17.3987 8.17376C17.4081 8.00242 17.3125 8.01695 17.2502 8.05226C17.1692 8.10107 17.164 8.11768 17.083 8.16753C16.9792 8.18311 16.7787 8.25165 16.6801 8.09795C16.5783 7.91311 16.5762 7.65557 16.4994 7.46968C16.4994 7.45618 16.3644 7.1758 16.4901 7.15815C16.5534 7.16957 16.6874 7.20488 16.7092 7.09272C16.7746 6.98265 16.5669 6.66903 16.4257 6.51015C16.3021 6.37515 16.1307 6.35853 15.9656 6.49665C15.8493 6.60361 15.8659 6.72199 15.8431 6.83518C15.8242 6.91506 15.8243 6.99824 15.8432 7.0781C15.8621 7.15796 15.8994 7.23231 15.9521 7.29522C16.0674 7.52265 16.2782 7.81653 16.2086 8.22776C16.2086 8.22776 16.0861 8.42299 15.8711 8.39807C15.7818 8.37834 15.6364 8.33992 15.5596 7.76876C15.5014 7.33572 15.5741 6.7303 15.3903 6.4468C15.3239 6.27545 15.2761 6.11034 15.1141 6.40318C15.0705 6.51845 14.8836 6.69291 15.0196 7.05326C15.1307 7.28068 15.1754 7.65141 15.1255 8.06472C15.0487 8.18207 15.0321 8.22153 14.9313 8.33888C14.7901 8.49049 14.6374 8.45207 14.5201 8.39495C14.41 8.32122 14.3249 8.2828 14.275 8.04811C14.2844 7.67426 14.3051 7.06157 14.2366 6.93176C14.1359 6.7303 13.9697 6.80299 13.8981 6.86426C13.5564 7.17684 13.3882 7.70334 13.2854 8.12184C13.1909 8.42715 13.0901 8.33991 13.0195 8.21634C12.8471 8.05434 12.8357 6.79053 12.627 6.99926C12.2916 7.94841 12.816 8.99103 13.1794 8.88926Z" fill="white"/>
<path d="M18.1414 10.9288L18.0417 10.8717L16.0883 10.8623C15.9876 10.8239 16.0177 10.7907 16.0883 10.7637C16.5546 10.7003 17.3843 10.5653 17.4394 9.76881C17.43 9.35446 17.2607 9.08239 16.7519 9.00762C16.3791 9.03669 16.1122 9.39912 16.1548 9.79685C16.1371 9.90485 16.1901 10.1146 16.081 10.1385C15.3635 10.2039 14.5815 10.6525 14.5555 10.9745C14.5119 11.0046 14.4143 10.9173 14.4268 10.7803C14.3922 10.1939 14.2234 9.62333 13.9335 9.1125C13.7071 8.88612 13.7777 8.96089 13.6261 9.06785C13.5285 9.18 13.5109 9.25685 13.516 9.48012C13.516 9.48842 13.6988 9.99831 13.8535 10.3555C13.9564 10.7221 14.0529 11.1406 13.9834 11.5363C13.7424 12.0597 13.2575 12.529 12.7902 12.7835C12.5492 12.8613 12.3426 12.8333 12.2917 12.7793C12.1432 12.6796 12.1505 12.4958 12.1619 12.4927C12.5555 12.2175 13.0062 11.9963 13.3592 11.2559C13.4631 10.9734 13.4942 10.8021 13.3914 10.3649C13.3629 10.2108 13.292 10.0677 13.1869 9.95158C13.2502 9.91004 13.4319 10.0482 13.46 9.96612C13.4073 9.72681 13.2882 9.50723 13.1162 9.33266C12.976 9.20493 12.8234 9.19039 12.6946 9.30773C12.5492 9.38873 12.5181 9.67742 12.5877 9.93081C12.6645 10.1219 12.8732 10.1541 13.0228 10.5373C13.0228 10.5456 13.0768 10.8239 12.9999 10.9329C12.9387 11.124 12.1442 11.7481 12.1006 11.7762C12.0788 11.8032 12.0882 11.7627 12.085 11.6588C12.0799 11.5321 12.1359 11.233 12.1204 11.231C11.8618 11.3982 11.7756 11.9101 11.7289 12.0617C11.0746 12.5135 10.3342 12.8499 9.90635 13.3089C9.68308 13.6568 11.4412 12.9091 11.6458 12.8188C11.6915 12.852 11.6863 13.0088 11.8088 13.149C11.9916 13.3962 12.3779 13.5488 12.7569 13.4543C13.3904 13.2248 13.757 12.7928 14.1287 12.3141C14.1817 12.2362 14.2648 12.177 14.3416 12.2362C14.5971 12.8084 15.3354 13.2134 16.2877 13.256C16.5089 12.987 16.4019 12.8572 16.3126 12.8011C16.3126 12.7928 15.8422 12.6142 15.7705 12.4356C15.7269 12.2736 15.8329 12.1313 16.0447 12.0233C16.6564 11.9496 17.2576 11.8675 17.8402 11.6806C17.8464 11.4854 17.9596 11.1925 18.0375 11.0658C18.1123 10.9371 18.1528 10.9755 18.1414 10.9288ZM16.5349 9.71169C16.5639 9.66289 16.6605 9.66496 16.7509 9.71792C16.8412 9.76985 16.8921 9.85292 16.862 9.90173C16.8329 9.95158 16.7353 9.94846 16.6449 9.8955C16.5546 9.84358 16.5058 9.76154 16.5349 9.71169ZM15.7487 11.6848C15.539 11.7564 15.3375 11.8125 15.3375 12.1157C15.4154 12.5373 15.2305 12.393 15.1215 12.3348C14.9927 12.2424 14.6303 12.0192 14.5784 11.5373C14.5701 11.422 14.6604 11.3255 14.8048 11.3255C15.0218 11.3847 15.3427 11.3888 15.621 11.4179C15.8484 11.4324 15.9616 11.611 15.7487 11.6848ZM8.51378 7.0065C8.73808 7.1145 9.16178 7.06881 9.14308 6.70535C9.14308 6.67316 9.13478 6.56515 9.13166 6.53608C9.08597 6.42912 8.96135 6.45508 8.93228 6.56619C8.92293 6.60254 8.94785 6.66069 8.91566 6.67939C8.89697 6.69808 8.82531 6.68666 8.82843 6.58696C8.82843 6.55477 8.80454 6.5205 8.79104 6.50077C8.77651 6.49142 8.7682 6.48831 8.74224 6.48831C8.71108 6.48935 8.71108 6.49766 8.69447 6.52466C8.6872 6.55062 8.67681 6.57762 8.67681 6.60773C8.67266 6.64304 8.65916 6.6555 8.6332 6.66173C8.60412 6.66173 8.61035 6.66485 8.58751 6.64927C8.57297 6.63369 8.55531 6.62746 8.55531 6.6015C8.55523 6.57115 8.55032 6.54101 8.54078 6.51219C8.52831 6.49558 8.50858 6.48831 8.48574 6.48208C8.3632 6.48208 8.35489 6.62227 8.36216 6.67627C8.35074 6.68562 8.34658 6.93692 8.51378 7.0065Z" fill="white"/>
<path d="M15.4143 9.37419C15.4143 9.342 15.3904 9.30877 15.3769 9.288C15.3624 9.27866 15.354 9.27554 15.3281 9.27554C15.2969 9.27658 15.298 9.28489 15.2803 9.31189C15.273 9.33889 15.2627 9.36485 15.2627 9.39496C15.2595 9.43131 15.245 9.44377 15.219 9.44896C15.19 9.44896 15.1962 9.45208 15.1723 9.43754C15.1578 9.42196 15.1401 9.41573 15.1401 9.38977C15.1401 9.35941 15.1352 9.32925 15.1256 9.30046C15.1131 9.28385 15.0934 9.27658 15.0705 9.27139C14.948 9.27139 14.9397 9.41158 14.9459 9.46454C14.9366 9.47493 14.9314 9.72519 15.0986 9.79581C15.3239 9.90277 15.8587 9.84046 15.7279 9.49466C15.7257 9.43779 15.7219 9.381 15.7165 9.32435C15.6708 9.21739 15.5451 9.24439 15.5171 9.35446C15.5088 9.39081 15.5337 9.44896 15.5005 9.46766C15.4839 9.48635 15.4112 9.47493 15.4143 9.37419ZM18.9419 8.64C19.1662 8.748 19.5889 8.70231 19.5702 8.33989C19.568 8.28302 19.5642 8.22623 19.5588 8.16958C19.5131 8.06262 19.3885 8.08962 19.3604 8.19969C19.3511 8.23604 19.376 8.29419 19.3428 8.31289C19.3241 8.33158 19.2524 8.32119 19.2555 8.22046C19.2555 8.18827 19.2317 8.154 19.2182 8.13427C19.2036 8.12493 19.1953 8.12181 19.1683 8.12181C19.1372 8.12389 19.1382 8.13116 19.1205 8.15816C19.1133 8.18516 19.1029 8.21112 19.1029 8.24123C19.0987 8.27758 19.0852 8.29004 19.0593 8.29523C19.0302 8.29523 19.0364 8.29835 19.0125 8.28381C18.998 8.26823 18.9814 8.262 18.9814 8.23604C18.9813 8.20535 18.9764 8.17487 18.9669 8.14569C18.9534 8.12908 18.9347 8.12181 18.9108 8.11662C18.7882 8.11662 18.7799 8.25681 18.7872 8.30977C18.7799 8.32016 18.7747 8.57043 18.9419 8.64ZM19.0935 7.236C19.1735 7.46031 19.0323 7.67423 19.1164 7.70539C19.1922 7.74069 19.3002 7.47381 19.3397 7.22769C19.3864 7.02831 19.2441 6.62019 19.0427 6.53608C18.9201 6.507 18.7457 6.57969 18.8017 6.74377C18.7737 6.82269 19.0489 7.09062 19.0935 7.236ZM21.1653 12.4948C21.3221 12.4958 21.5028 12.1365 21.5796 11.7803C21.6222 11.2902 21.5505 10.9921 21.5381 10.7034C21.5246 10.4158 21.213 8.21943 21.1487 8.00135C21.0729 7.58908 21.4529 7.94631 21.4114 7.70642C21.2795 7.40423 20.9524 6.96496 20.8485 6.70223C20.7862 6.59008 20.8132 6.49039 20.6741 6.67316C20.5464 7.09373 20.5017 7.43643 20.5505 7.69812C20.8807 9.42196 21.2193 10.855 21.1653 12.4948ZM25.0657 7.98785C25.1021 8.1 25.0107 8.46242 25.0865 8.49566C25.1561 8.53304 25.2537 8.24539 25.29 7.9785C25.3098 7.83208 25.2028 7.32116 25.019 7.22977C24.9069 7.19862 24.748 7.2765 24.7999 7.45512C24.7739 7.54131 25.0252 7.83 25.0657 7.98785ZM11.4422 11.7845C11.5097 11.8125 11.6021 11.6007 11.6374 11.4044C11.6571 11.2964 11.5533 10.9215 11.3778 10.854C11.2698 10.8312 11.1223 10.8602 11.168 11.0202C11.1628 11.1063 11.4069 11.2102 11.4214 11.4106C11.4567 11.4937 11.3695 11.7606 11.4422 11.7845ZM6.71093 6.99196C6.7452 7.07816 6.67666 7.35335 6.74832 7.37931C6.81374 7.40839 6.90616 7.18823 6.94043 6.98573C6.96016 6.87358 6.94459 6.4935 6.68497 6.41562C6.57801 6.39173 6.42951 6.45093 6.47832 6.58696C6.45339 6.65135 6.67251 6.8715 6.71093 6.99196ZM11.8015 8.21008C11.6031 8.31808 11.5252 8.63792 11.6499 8.82381C11.7651 8.98892 11.9479 8.92766 11.9728 8.92766C12.168 8.95154 12.2833 8.56212 12.2833 8.56212C12.2833 8.56212 12.2895 8.45308 12.058 8.65973C11.9604 8.67843 11.9479 8.64208 11.924 8.586C11.9004 8.48437 11.911 8.37777 11.9541 8.28277C11.9874 8.18619 11.9126 8.14362 11.8015 8.21008ZM13.2989 7.01273C13.3309 6.99295 13.3584 6.96663 13.3795 6.93549C13.4006 6.90435 13.4149 6.8691 13.4215 6.83204C13.4516 6.68043 13.2605 6.90369 13.2366 6.73442C13.194 6.57762 13.3166 6.51323 13.4329 6.36162C13.437 6.25673 13.435 6.183 13.2927 6.26816C13.193 6.33566 12.9936 6.54127 12.9874 6.77804C12.9812 6.912 12.9562 6.91096 13.0445 6.99612C13.1079 7.08854 13.1712 7.07919 13.2989 7.01273ZM14.6479 7.09373C14.7767 6.74481 14.7767 6.59735 14.786 6.44885C14.7465 6.2235 14.5939 6.23077 14.4932 6.48104C14.4495 6.57554 14.3987 7.07296 14.407 7.07296C14.3727 7.22146 14.5617 7.28481 14.6479 7.09373ZM23.1321 9.56839C23.1321 9.56839 22.0905 10.3088 22.0656 10.3348C21.9618 10.4262 22.0137 10.7502 22.0656 10.7128C22.1394 10.7418 23.1872 10.0305 23.1664 9.94743C23.2152 9.9495 23.2391 9.531 23.1321 9.56839ZM23.0044 11.5768C23.074 11.6142 23.2578 11.3867 23.2505 11.1032C23.2713 10.9568 23.1975 10.4199 23.0148 10.3285C22.9026 10.2974 22.7531 10.3929 22.805 10.5705C22.779 10.6557 22.9338 10.9537 22.9743 11.1115C23.0106 11.2247 22.9286 11.5435 23.0044 11.5768ZM17.1059 13.1303C17.1059 13.1397 17.1942 13.2155 17.298 13.1552C17.5161 13.0711 17.6532 12.9901 17.9585 12.9226C18.0385 12.9216 18.0333 12.7066 17.9066 12.6993C17.7415 12.7077 17.5878 12.716 17.4227 12.8468C17.3209 12.8697 17.3043 12.8084 17.2814 12.7523C17.2565 12.6142 17.3385 12.5187 17.3209 12.4158C17.3271 12.4221 17.2264 12.3297 17.1236 12.3816C17.1184 12.3816 16.8941 12.5332 16.8224 12.6391C16.7778 12.6734 16.783 12.7025 16.7965 12.7596C16.8307 12.8385 16.892 12.8146 16.9605 12.7772C17.0519 12.7648 17.0955 12.825 17.0883 12.934C17.0447 13.0722 17.1059 13.123 17.1059 13.1303ZM23.9089 13.3027C23.8746 13.3619 23.8518 13.4512 23.9577 13.4792C24.1529 13.5343 24.6026 13.2414 24.6026 13.2362C24.6753 13.1812 24.6514 13.0784 24.6452 13.0784C24.6026 13.0296 24.507 13.0576 24.4427 13.0503C24.4125 13.0503 24.3108 13.0348 24.3596 12.9455C24.3939 12.8973 24.4212 12.8445 24.4406 12.7887C24.4707 12.7212 24.4447 12.6765 24.3347 12.6402C24.2235 12.6194 24.1789 12.6298 24.0553 12.6402C23.9889 12.6547 23.966 12.6838 23.9535 12.7648C23.9587 12.8873 24.0325 12.8811 24.1093 12.9299C24.154 12.987 24.183 13.0389 24.1062 13.1313C24.0335 13.1988 23.9826 13.2362 23.9089 13.3027ZM23.7095 18.6923H22.1518V18.1731C22.1518 18.0354 22.0971 17.9033 21.9997 17.8059C21.9024 17.7086 21.7703 17.6538 21.6326 17.6538C21.4949 17.6538 21.3628 17.7086 21.2654 17.8059C21.1681 17.9033 21.1134 18.0354 21.1134 18.1731V18.6923H8.65182C8.65182 18.6923 8.65182 19.7308 11.7672 19.7308H21.1134V20.25C21.1134 20.3877 21.1681 20.5198 21.2654 20.6172C21.3628 20.7145 21.4949 20.7692 21.6326 20.7692C21.7703 20.7692 21.9024 20.7145 21.9997 20.6172C22.0971 20.5198 22.1518 20.3877 22.1518 20.25V19.7308H23.1903V20.25C23.1903 20.3877 23.245 20.5198 23.3424 20.6172C23.4397 20.7145 23.5718 20.7692 23.7095 20.7692C23.8472 20.7692 23.9793 20.7145 24.0767 20.6172C24.174 20.5198 24.2287 20.3877 24.2287 20.25V19.2115C24.2287 19.0738 24.174 18.9418 24.0767 18.8444C23.9793 18.747 23.8472 18.6923 23.7095 18.6923Z" fill="white"/>
</g>
<defs>
<clipPath id="clip0_1926_11750">
<rect width="32" height="27" rx="8" fill="white"/>
</clipPath>
</defs>
</svg>
