<svg width="32" height="27" viewBox="0 0 32 27" fill="none" xmlns="http://www.w3.org/2000/svg">
<g clip-path="url(#clip0_1926_11744)">
<path d="M33.495 6.10352e-05H-1.54256C-3.24715 6.10352e-05 -4.62891 1.38181 -4.62891 3.08641V23.9136C-4.62891 25.6181 -3.24715 27 -1.54256 27H33.495C35.1996 27 36.5814 25.6182 36.5814 23.9136V3.08641C36.5814 1.38181 35.1996 6.10352e-05 33.495 6.10352e-05Z" fill="#41479B"/>
<path d="M36.5387 2.57621C36.2954 1.11461 35.0257 0 33.495 0H32.692L19.5289 8.62414V8.04446e-05H12.4236V8.62422L-0.739524 8.04446e-05H-1.54256C-3.07322 8.04446e-05 -4.34293 1.11461 -4.58617 2.57629L6.66441 9.94746H-4.62891V17.0527H6.66441L-4.58617 24.4237C-4.34293 25.8853 -3.07322 26.9999 -1.54256 26.9999H-0.739524L12.4236 18.3758V26.9999H19.5289V18.3758L32.692 26.9999H33.495C35.0257 26.9999 36.2954 25.8854 36.5387 24.4237L25.2881 17.0525H36.5814V9.94729H25.2881L36.5387 2.57621Z" fill="#F5F5F5"/>
<path d="M18.1078 6.10352e-05H13.8447V11.3684H-4.62891V15.6316H13.8447V26.9999H18.1078V15.6316H36.5814V11.3684H18.1078V6.10352e-05Z" fill="#FF4B55"/>
<path d="M-2.63554 26.801L12.3823 17.0527H9.77222L-3.88867 25.9203C-3.5544 26.3104 -3.12483 26.6161 -2.63554 26.801Z" fill="#FF4B55"/>
<path d="M23.2507 17.0527H20.6406L35.1862 26.4944C35.5933 26.2271 35.9329 25.866 36.1752 25.442L23.2507 17.0527Z" fill="#FF4B55"/>
<path d="M-4.30273 1.70644L8.39277 9.94745H11.0029L-3.38307 0.609131C-3.76933 0.896637 -4.08541 1.27252 -4.30273 1.70644Z" fill="#FF4B55"/>
<path d="M22.1355 9.9474L35.8214 1.06344C35.4834 0.674598 35.0505 0.370672 34.5578 0.189331L19.5254 9.9474H22.1355Z" fill="#FF4B55"/>
</g>
<defs>
<clipPath id="clip0_1926_11744">
<rect width="32" height="27" rx="8" fill="white"/>
</clipPath>
</defs>
</svg>
